<svg width="28" height="26" viewBox="0 0 28 26" fill="none" xmlns="http://www.w3.org/2000/svg">
<g id="Custom: AED+C">
<path id="Vector 26" d="M10.1431 1V14.7143H26.1431" stroke="#FFFEFC" stroke-width="2" stroke-linecap="round" stroke-linejoin="round"/>
<path id="Vector 27" d="M10.1429 14.7143L1 23.8572" stroke="#FFFEFC" stroke-width="2" stroke-linecap="round" stroke-linejoin="round"/>
<path id="Vector" d="M21 10.1429C23.2091 10.1429 25 8.35199 25 6.14285C25 3.93371 23.2091 2.14285 21 2.14285C18.7909 2.14285 17 3.93371 17 6.14285C17 8.35199 18.7909 10.1429 21 10.1429Z" stroke="#ADFF2C" stroke-width="2" stroke-linecap="round" stroke-linejoin="round"/>
<path id="Vector_2" d="M22.1428 25C23.7207 25 24.9999 23.7208 24.9999 22.1428C24.9999 20.5649 23.7207 19.2857 22.1428 19.2857C20.5648 19.2857 19.2856 20.5649 19.2856 22.1428C19.2856 23.7208 20.5648 25 22.1428 25Z" stroke="#ADFF2C" stroke-width="2" stroke-linecap="round" stroke-linejoin="round"/>
<path id="Vector_3" d="M3.28571 14.7143C4.54808 14.7143 5.57143 13.6909 5.57143 12.4286C5.57143 11.1662 4.54808 10.1429 3.28571 10.1429C2.02335 10.1429 1 11.1662 1 12.4286C1 13.6909 2.02335 14.7143 3.28571 14.7143Z" stroke="#ADFF2C" stroke-width="2" stroke-linecap="round" stroke-linejoin="round"/>
</g>
</svg>
