<svg width="40" height="40" viewBox="0 0 40 40" fill="none" xmlns="http://www.w3.org/2000/svg">
<path d="M35.3499 26.4833C34.2896 28.9908 32.6312 31.2004 30.5197 32.9188C28.4081 34.6373 25.9078 35.8124 23.2373 36.3413C20.5667 36.8702 17.8072 36.7369 15.2001 35.953C12.593 35.1691 10.2176 33.7585 8.28156 31.8444C6.34555 29.9304 4.90788 27.5713 4.09425 24.9733C3.28062 22.3753 3.11579 19.6175 3.61419 16.9411C4.11258 14.2646 5.25902 11.7511 6.95327 9.62006C8.64752 7.48906 10.838 5.80554 13.3332 4.71667" stroke="#ADFF2C" stroke-width="2" stroke-linecap="round" stroke-linejoin="round"/>
<path d="M36.6667 20C36.6667 17.8113 36.2356 15.644 35.398 13.6219C34.5604 11.5998 33.3328 9.76251 31.7851 8.21487C30.2375 6.66722 28.4002 5.43957 26.3781 4.60199C24.356 3.76441 22.1887 3.33331 20 3.33331V20H36.6667Z" stroke="#FFFEFC" stroke-width="2" stroke-linecap="round" stroke-linejoin="round"/>
</svg>
