<svg width="40" height="40" viewBox="0 0 40 40" fill="none" xmlns="http://www.w3.org/2000/svg">
<g id="fi:upload-cloud">
<path id="Vector" d="M26.6668 26.6667L20.0002 20L13.3335 26.6667" stroke="#ADFF2C" stroke-width="2" stroke-linecap="round" stroke-linejoin="round"/>
<path id="Vector_2" d="M20 20V35" stroke="#FFFEFC" stroke-width="2" stroke-linecap="round" stroke-linejoin="round"/>
<path id="Vector_3" d="M33.9833 30.65C35.6088 29.7638 36.893 28.3615 37.6331 26.6644C38.3731 24.9673 38.527 23.072 38.0703 21.2778C37.6136 19.4836 36.5724 17.8925 35.1111 16.7557C33.6497 15.619 31.8514 15.0012 29.9999 15H27.8999C27.3955 13.0487 26.4552 11.2372 25.1498 9.70165C23.8445 8.16608 22.208 6.94641 20.3634 6.13434C18.5189 5.32227 16.5142 4.93892 14.5001 5.01313C12.4861 5.08734 10.515 5.61716 8.73523 6.56277C6.95541 7.50838 5.41312 8.84516 4.2243 10.4726C3.03549 12.1001 2.23108 13.9759 1.87157 15.959C1.51205 17.9421 1.60678 19.9809 2.14862 21.9221C2.69047 23.8633 3.66534 25.6564 4.99993 27.1667" stroke="#ADFF2C" stroke-width="2" stroke-linecap="round" stroke-linejoin="round"/>
<path id="Vector_4" d="M26.6668 26.6667L20.0002 20L13.3335 26.6667" stroke="white" stroke-width="2" stroke-linecap="round" stroke-linejoin="round"/>
</g>
</svg>
