<svg width="28" height="26" viewBox="0 0 28 26" fill="none" xmlns="http://www.w3.org/2000/svg">
<g id="Custom: PM">
<g id="PM1">
<path id="Vector" d="M3.74314 16.4527L16.087 16.4527C17.602 16.4527 18.8301 15.3883 18.8301 14.0754L18.8301 3.37735C18.8301 2.06438 17.602 1.00001 16.087 1.00001L3.74314 1.00001C2.22818 1.00001 1.00006 2.06438 1.00006 3.37735L1.00006 14.0754C1.00006 15.3883 2.22818 16.4527 3.74314 16.4527Z" stroke="#FFFEFC" stroke-width="2" stroke-linecap="round" stroke-linejoin="round"/>
<path id="Vector_2" d="M19.902 1.11334L17.3018 3.74154L14.7016 6.36973L12.77 4.08501" stroke="#ADFF2C" stroke-width="2" stroke-linecap="round" stroke-linejoin="round"/>
<path id="Vector_3" d="M22.8029 9.54732L24.1744 9.54732C24.9019 9.54732 25.5996 9.79778 26.1141 10.2436C26.6285 10.6895 26.9175 11.2941 26.9175 11.9247L26.9175 22.6227C26.9175 23.2532 26.6285 23.8579 26.1141 24.3037C25.5996 24.7495 24.9019 25 24.1744 25L11.8305 25C11.103 25 10.4053 24.7495 9.89089 24.3037C9.37646 23.8579 9.08746 23.2532 9.08746 22.6227V21.434" stroke="#FFFEFC" stroke-width="2" stroke-linecap="round" stroke-linejoin="round"/>
</g>
<path id="Vector_4" d="M4.44922 11.8114V9.43402" stroke="#FFFEFC" stroke-width="2" stroke-linecap="round" stroke-linejoin="round"/>
<path id="Vector_5" d="M12.77 20.132V17.7547" stroke="#FFFEFC" stroke-width="2" stroke-linecap="round" stroke-linejoin="round"/>
<path id="Vector_6" d="M11.5815 11.8114V8.24536" stroke="#FFFEFC" stroke-width="2" stroke-linecap="round" stroke-linejoin="round"/>
<path id="Vector_7" d="M19.9019 20.132V16.566" stroke="#FFFEFC" stroke-width="2" stroke-linecap="round" stroke-linejoin="round"/>
<path id="Vector_8" d="M15.1475 11.8113V10.6227" stroke="#FFFEFC" stroke-width="2" stroke-linecap="round" stroke-linejoin="round"/>
<path id="Vector_9" d="M23.4683 20.132V18.9433" stroke="#FFFEFC" stroke-width="2" stroke-linecap="round" stroke-linejoin="round"/>
<path id="Vector_10" d="M8.01514 11.8113V5.86798" stroke="#FFFEFC" stroke-width="2" stroke-linecap="round" stroke-linejoin="round"/>
<path id="Vector_11" d="M16.3359 20.132V17.7547" stroke="#FFFEFC" stroke-width="2" stroke-linecap="round" stroke-linejoin="round"/>
</g>
</svg>
