<svg width="29" height="26" viewBox="0 0 29 26" fill="none" xmlns="http://www.w3.org/2000/svg">
<g id="Custom: RFM">
<path id="Vector 21" d="M1 24.3528L12.7098 7.22771" stroke="white" stroke-width="2" stroke-linecap="round"/>
<path id="Vector 22" d="M27.8555 24.3528L15.8937 7.06237" stroke="white" stroke-width="2" stroke-linecap="round"/>
<path id="Vector 24" d="M22.2056 18.5146L17.6459 24.3527" stroke="white" stroke-width="2" stroke-linecap="round"/>
<path id="Vector 25" d="M7.13672 18.5146L11.6963 24.3527" stroke="white" stroke-width="2" stroke-linecap="round"/>
<path id="Vector" d="M23.192 18.5145C24.8042 18.5145 26.1111 17.2076 26.1111 15.5955C26.1111 13.9833 24.8042 12.6764 23.192 12.6764C21.5799 12.6764 20.2729 13.9833 20.2729 15.5955C20.2729 17.2076 21.5799 18.5145 23.192 18.5145Z" fill="#1E1C13" stroke="#ADFF2C" stroke-width="2" stroke-linecap="round" stroke-linejoin="round"/>
<path id="Vector_2" d="M5.67738 18.5145C7.28954 18.5145 8.59645 17.2076 8.59645 15.5955C8.59645 13.9833 7.28954 12.6764 5.67738 12.6764C4.06522 12.6764 2.7583 13.9833 2.7583 15.5955C2.7583 17.2076 4.06522 18.5145 5.67738 18.5145Z" fill="#1E1C13" stroke="#ADFF2C" stroke-width="2" stroke-linecap="round" stroke-linejoin="round"/>
<path id="Vector_3" d="M14.4347 6.83819C16.0469 6.83819 17.3538 5.53126 17.3538 3.91909C17.3538 2.30692 16.0469 1 14.4347 1C12.8225 1 11.5156 2.30692 11.5156 3.91909C11.5156 5.53126 12.8225 6.83819 14.4347 6.83819Z" fill="#1E1C13" stroke="#ADFF2C" stroke-width="2" stroke-linecap="round" stroke-linejoin="round"/>
</g>
</svg>
