<svg width="41" height="41" viewBox="0 0 41 41" fill="none" xmlns="http://www.w3.org/2000/svg">
<g clip-path="url(#clip0_2023_4785)">
<path d="M26.9548 27.4982L20.2881 20.8315L13.6214 27.4982" stroke="#ADFF2C" stroke-width="2" stroke-linecap="round" stroke-linejoin="round"/>
<path d="M20.2881 20.8315V35.8315" stroke="#ADFF2C" stroke-width="2" stroke-linecap="round" stroke-linejoin="round"/>
<path d="M34.2714 31.4816C35.897 30.5954 37.1811 29.1931 37.9212 27.496C38.6613 25.7989 38.8151 23.9036 38.3584 22.1094C37.9017 20.3152 36.8606 18.7241 35.3992 17.5873C33.9378 16.4506 32.1395 15.8328 30.2881 15.8316H28.1881C27.6836 13.8803 26.7433 12.0688 25.438 10.5333C24.1326 8.99768 22.4962 7.77801 20.6516 6.96594C18.807 6.15387 16.8023 5.77053 14.7883 5.84473C12.7742 5.91894 10.8032 6.44876 9.02338 7.39437C7.24356 8.33998 5.70127 9.67677 4.51245 11.3042C3.32363 12.9317 2.51923 14.8075 2.15971 16.7906C1.8002 18.7737 1.89492 20.8125 2.43677 22.7537C2.97862 24.6949 3.95348 26.488 5.28808 27.9983" stroke="#ADFF2C" stroke-width="2" stroke-linecap="round" stroke-linejoin="round"/>
<path d="M26.9548 27.4982L20.2881 20.8315L13.6214 27.4982" stroke="#ADFF2C" stroke-width="2" stroke-linecap="round" stroke-linejoin="round"/>
</g>
<defs>
<clipPath id="clip0_2023_4785">
<rect width="40" height="40" fill="white" transform="translate(0.288086 0.831543)"/>
</clipPath>
</defs>
</svg>
