<svg width="41" height="41" viewBox="0 0 41 41" fill="none" xmlns="http://www.w3.org/2000/svg">
<g clip-path="url(#clip0_2023_4766)">
<path d="M20.2881 2.49829V39.165" stroke="#ADFF2C" stroke-width="2" stroke-linecap="round" stroke-linejoin="round"/>
<path d="M28.6214 9.16479H16.1214C14.5743 9.16479 13.0906 9.77938 11.9966 10.8733C10.9027 11.9673 10.2881 13.451 10.2881 14.9981C10.2881 16.5452 10.9027 18.029 11.9966 19.1229C13.0906 20.2169 14.5743 20.8315 16.1214 20.8315H24.4548C26.0018 20.8315 27.4856 21.446 28.5795 22.54C29.6735 23.634 30.2881 25.1177 30.2881 26.6648C30.2881 28.2119 29.6735 29.6956 28.5795 30.7896C27.4856 31.8835 26.0018 32.4981 24.4548 32.4981H10.2881" stroke="#ADFF2C" stroke-width="2" stroke-linecap="round" stroke-linejoin="round"/>
</g>
<defs>
<clipPath id="clip0_2023_4766">
<rect width="40" height="40" fill="white" transform="translate(0.288086 0.831543)"/>
</clipPath>
</defs>
</svg>
