<svg width="41" height="41" viewBox="0 0 41 41" fill="none" xmlns="http://www.w3.org/2000/svg">
<path d="M36.9548 20.8315H3.62143" stroke="#ADFF2C" stroke-width="2" stroke-linecap="round" stroke-linejoin="round"/>
<path d="M9.37143 9.34829L3.62143 20.8316V30.8316C3.62143 31.7157 3.97262 32.5635 4.59774 33.1886C5.22286 33.8138 6.07071 34.165 6.95476 34.165H33.6214C34.5055 34.165 35.3533 33.8138 35.9785 33.1886C36.6036 32.5635 36.9548 31.7157 36.9548 30.8316V20.8316L31.2048 9.34829C30.9288 8.79294 30.5034 8.32558 29.9764 7.99876C29.4493 7.67194 28.8416 7.49862 28.2214 7.49829H12.3548C11.7346 7.49862 11.1269 7.67194 10.5998 7.99876C10.0728 8.32558 9.64739 8.79294 9.37143 9.34829V9.34829Z" stroke="#ADFF2C" stroke-width="2" stroke-linecap="round" stroke-linejoin="round"/>
<path d="M16.9547 27.4983H16.9714" stroke="#ADFF2C" stroke-width="2" stroke-linecap="round" stroke-linejoin="round"/>
<path d="M10.2881 27.4983H10.3048" stroke="#ADFF2C" stroke-width="2" stroke-linecap="round" stroke-linejoin="round"/>
</svg>
