<svg width="101" height="101" viewBox="0 0 101 101" fill="none" xmlns="http://www.w3.org/2000/svg">
<mask id="mask0_2023_779" style="mask-type:alpha" maskUnits="userSpaceOnUse" x="0" y="0" width="101" height="101">
<circle cx="50.2881" cy="50.8315" r="50" fill="black"/>
</mask>
<g mask="url(#mask0_2023_779)">
<circle cx="50.2881" cy="50.8315" r="49" fill="#060508" stroke="#ADFF2C" stroke-width="2"/>
<path d="M44.4346 57.787H44.4346L44.4346 57.797C44.4397 59.9725 43.9829 62.1244 43.0943 64.1102C42.2058 66.096 40.9058 67.8706 39.2803 69.3165L39.2725 69.3233L39.265 69.3304C39.117 69.4676 38.9684 69.6131 38.8323 69.7464C38.7995 69.7786 38.7674 69.81 38.7362 69.8404C37.0449 71.1784 35.1081 72.1728 33.035 72.7677C32.1156 72.9993 31.1832 73.1758 30.2428 73.2964L30.2313 73.2979L30.2197 73.2996C30.1283 73.3135 30.0349 73.2934 29.9572 73.2431C29.9064 73.2102 29.8646 73.1658 29.8349 73.1141L29.8422 66.9941C29.8526 66.7811 29.8401 66.5794 29.8302 66.4293C29.8291 66.4122 29.828 66.3958 29.8269 66.38C29.817 66.2311 29.8104 66.1322 29.8117 66.0361C29.8141 65.8633 29.8414 65.8333 29.8653 65.8071L29.8669 65.8053L29.875 65.7964L29.8829 65.7873C29.9784 65.677 30.1042 65.5976 30.2445 65.5589C31.454 65.3342 32.624 64.9335 33.7174 64.3696L33.7385 64.3587L33.7591 64.3468C34.7634 63.7667 35.6366 62.9849 36.3237 62.0506C37.0091 61.1186 37.4945 60.055 37.7493 58.9266C37.8296 58.5955 37.9063 58.2637 37.9814 57.9372L38.2627 56.7152L37.0088 56.7129C32.561 56.7047 28.1138 56.6974 23.6671 56.6909L23.6505 56.6909L23.6339 56.6914C23.3444 56.7006 23.0551 56.6713 22.7734 56.6042C22.4251 56.5091 22.116 56.3055 21.8912 56.0228C21.667 55.741 21.5382 55.3954 21.5232 55.0359C21.5149 48.3186 21.5182 41.6009 21.5332 34.8826L21.5334 34.779L21.5124 34.6776C21.441 34.3328 21.4594 33.9755 21.5659 33.6399C21.672 33.3058 21.8618 33.0043 22.1173 32.7643C22.392 32.5133 22.7487 32.3709 23.1207 32.364L42.728 32.3604C42.9919 32.3618 43.2521 32.4238 43.4882 32.5418C43.7248 32.6601 43.931 32.8314 44.0907 33.0424C44.2503 33.2534 44.3592 33.4984 44.4087 33.7583C44.4582 34.0182 44.4471 34.286 44.3762 34.5409L44.2964 34.8279L44.3866 35.1118C44.4488 35.3072 44.4711 35.513 44.4523 35.7172L44.4481 35.763L44.4481 35.809C44.4486 37.9255 44.4524 40.0408 44.4561 42.1554C44.4654 47.3689 44.4746 52.5775 44.4346 57.787ZM69.5287 72.1207L69.5267 72.1215C69.3854 72.182 69.2106 72.274 69.1027 72.331L68.9535 72.3727L68.8357 72.4057L68.7293 72.4661L68.6914 72.4877C67.5068 72.8256 66.3018 73.0877 65.0838 73.2724L65.0338 73.28L64.9847 73.2927C64.9228 73.3086 64.8581 73.3098 64.7957 73.2963L64.5843 74.2737L64.7957 73.2963C64.7333 73.2828 64.6749 73.2549 64.6251 73.2149C64.5754 73.1748 64.5357 73.1237 64.5092 73.0656C64.4827 73.0075 64.4701 72.944 64.4724 72.8802L64.4734 72.8547L64.473 72.8292C64.4639 72.1922 64.4589 71.5536 64.4538 70.912L64.4524 70.7369L64.4886 66.9731L64.4888 66.9582L64.4885 66.9433C64.4866 66.8523 64.4845 66.7662 64.4824 66.6831C64.4777 66.4928 64.4734 66.3182 64.4739 66.1363L64.4739 66.1347C64.4741 65.9517 64.4925 65.8496 64.5088 65.7955C64.5214 65.7538 64.5314 65.7433 64.5366 65.7379L64.5371 65.7374C64.5672 65.7055 64.7085 65.5912 65.2451 65.4663C66.9417 65.1703 68.5279 64.4242 69.8378 63.3055L69.8595 63.287L69.8802 63.2672C71.3865 61.8241 72.3613 59.9145 72.6465 57.8481L72.8031 56.7135L71.6578 56.7113L59.3334 56.6878H59.3332C59.1695 56.6875 59.0121 56.6881 58.858 56.6887C58.5698 56.6898 58.2929 56.6908 58.0069 56.686L57.9818 56.6856L57.9567 56.6864C57.7163 56.6944 57.4768 56.6525 57.2535 56.5632C57.0302 56.4739 56.8278 56.3393 56.6592 56.1678C56.4905 55.9963 56.3593 55.7916 56.2739 55.5668C56.1884 55.342 56.1505 55.1019 56.1626 54.8617L56.1638 54.8367L56.1638 54.8118C56.1659 48.1702 56.1711 41.5289 56.1794 34.8878L56.1794 34.8583L56.1777 34.8288L56.1666 34.6369L56.163 34.5744L56.1516 34.5128C56.0834 34.1441 56.1295 33.7634 56.2837 33.4216C56.4379 33.0799 56.693 32.7934 57.0146 32.6007L57.0146 32.6008L57.0263 32.5936C57.2795 32.4371 57.5725 32.357 57.8702 32.3628L57.8803 32.363L57.8905 32.363C64.3854 32.3595 70.8802 32.3576 77.3751 32.3574C77.639 32.3589 77.899 32.4211 78.135 32.5392C78.3716 32.6575 78.5777 32.8289 78.7373 33.0399C78.897 33.2509 79.0057 33.4959 79.0553 33.7558C79.1048 34.0157 79.0937 34.2835 79.0228 34.5384L78.9434 34.824L79.0326 35.1068C79.0945 35.3034 79.1169 35.5104 79.0984 35.7157L79.0944 35.7605V35.8054C79.0944 43.1443 79.0937 50.4833 79.0924 57.8223C79.0612 60.8765 78.1405 63.8555 76.4427 66.3947C74.744 68.9352 72.3412 70.9251 69.5287 72.1207Z" stroke="#FFFEFC" stroke-width="2"/>
</g>
</svg>
