<svg width="41" height="41" viewBox="0 0 41 41" fill="none" xmlns="http://www.w3.org/2000/svg">
<g clip-path="url(#clip0_2023_4748)">
<path d="M20.2881 25.8315C23.0495 25.8315 25.2881 23.593 25.2881 20.8315C25.2881 18.0701 23.0495 15.8315 20.2881 15.8315C17.5267 15.8315 15.2881 18.0701 15.2881 20.8315C15.2881 23.593 17.5267 25.8315 20.2881 25.8315Z" stroke="#ADFF2C" stroke-width="2" stroke-linecap="round" stroke-linejoin="round"/>
<path d="M32.6214 25.8316C32.3996 26.3343 32.3334 26.8919 32.4314 27.4326C32.5295 27.9733 32.7872 28.4722 33.1714 28.865L33.2714 28.965C33.5814 29.2745 33.8272 29.6422 33.995 30.0468C34.1627 30.4515 34.2491 30.8852 34.2491 31.3233C34.2491 31.7613 34.1627 32.1951 33.995 32.5998C33.8272 33.0044 33.5814 33.372 33.2714 33.6816C32.9619 33.9915 32.5942 34.2374 32.1896 34.4052C31.7849 34.5729 31.3512 34.6592 30.9131 34.6592C30.4751 34.6592 30.0413 34.5729 29.6366 34.4052C29.232 34.2374 28.8643 33.9915 28.5548 33.6816L28.4548 33.5816C28.062 33.1974 27.5631 32.9396 27.0224 32.8416C26.4818 32.7436 25.9241 32.8098 25.4214 33.0316C24.9285 33.2429 24.5081 33.5937 24.2119 34.0408C23.9158 34.488 23.7569 35.012 23.7548 35.5483V35.8316C23.7548 36.7157 23.4036 37.5635 22.7785 38.1886C22.1533 38.8138 21.3055 39.165 20.4214 39.165C19.5374 39.165 18.6895 38.8138 18.0644 38.1886C17.4393 37.5635 17.0881 36.7157 17.0881 35.8316V35.6816C17.0752 35.13 16.8966 34.5949 16.5756 34.1461C16.2546 33.6973 15.806 33.3554 15.2881 33.165C14.7854 32.9431 14.2278 32.8769 13.6871 32.9749C13.1465 33.073 12.6476 33.3307 12.2548 33.715L12.1548 33.815C11.8452 34.1249 11.4776 34.3707 11.0729 34.5385C10.6682 34.7062 10.2345 34.7926 9.79644 34.7926C9.35839 34.7926 8.92463 34.7062 8.51997 34.5385C8.11531 34.3707 7.74768 34.1249 7.43811 33.815C7.12818 33.5054 6.88232 33.1377 6.71457 32.7331C6.54683 32.3284 6.46048 31.8947 6.46048 31.4566C6.46048 31.0186 6.54683 30.5848 6.71457 30.1802C6.88232 29.7755 7.12818 29.4079 7.43811 29.0983L7.53811 28.9983C7.92233 28.6055 8.18008 28.1066 8.27811 27.5659C8.37614 27.0253 8.30996 26.4676 8.08811 25.965C7.87683 25.472 7.52603 25.0516 7.07888 24.7555C6.63173 24.4593 6.10775 24.3004 5.57144 24.2983H5.28811C4.40405 24.2983 3.5562 23.9471 2.93108 23.322C2.30596 22.6969 1.95477 21.849 1.95477 20.965C1.95477 20.0809 2.30596 19.2331 2.93108 18.6079C3.5562 17.9828 4.40405 17.6316 5.28811 17.6316H5.43811C5.98976 17.6187 6.52478 17.4402 6.9736 17.1191C7.42243 16.7981 7.7643 16.3495 7.95477 15.8316C8.17663 15.3289 8.24281 14.7713 8.14478 14.2306C8.04675 13.69 7.789 13.1911 7.40477 12.7983L7.30477 12.6983C6.99485 12.3887 6.74899 12.0211 6.58124 11.6164C6.41349 11.2118 6.32715 10.778 6.32715 10.34C6.32715 9.90191 6.41349 9.46815 6.58124 9.06349C6.74899 8.65883 6.99485 8.2912 7.30477 7.98162C7.61435 7.6717 7.98198 7.42584 8.38664 7.25809C8.7913 7.09034 9.22505 7.004 9.66311 7.004C10.1012 7.004 10.5349 7.09034 10.9396 7.25809C11.3442 7.42584 11.7119 7.6717 12.0214 7.98162L12.1214 8.08162C12.5142 8.46585 13.0131 8.7236 13.5538 8.82163C14.0944 8.91966 14.6521 8.85348 15.1548 8.63162H15.2881C15.7811 8.42035 16.2015 8.06955 16.4976 7.6224C16.7937 7.17525 16.9526 6.65127 16.9548 6.11496V5.83162C16.9548 4.94757 17.306 4.09972 17.9311 3.4746C18.5562 2.84948 19.404 2.49829 20.2881 2.49829C21.1722 2.49829 22.02 2.84948 22.6451 3.4746C23.2702 4.09972 23.6214 4.94757 23.6214 5.83162V5.98162C23.6236 6.51793 23.7825 7.04192 24.0786 7.48907C24.3747 7.93622 24.7952 8.28702 25.2881 8.49829C25.7908 8.72015 26.3484 8.78633 26.8891 8.6883C27.4297 8.59027 27.9286 8.33252 28.3214 7.94829L28.4214 7.84829C28.731 7.53837 29.0986 7.29251 29.5033 7.12476C29.908 6.95701 30.3417 6.87067 30.7798 6.87067C31.2178 6.87067 31.6516 6.95701 32.0562 7.12476C32.4609 7.29251 32.8285 7.53837 33.1381 7.84829C33.448 8.15787 33.6939 8.5255 33.8616 8.93016C34.0294 9.33482 34.1157 9.76857 34.1157 10.2066C34.1157 10.6447 34.0294 11.0784 33.8616 11.4831C33.6939 11.8878 33.448 12.2554 33.1381 12.565L33.0381 12.665C32.6539 13.0578 32.3961 13.5566 32.2981 14.0973C32.2001 14.638 32.2662 15.1956 32.4881 15.6983V15.8316C32.6994 16.3246 33.0502 16.745 33.4973 17.0411C33.9445 17.3372 34.4685 17.4962 35.0048 17.4983H35.2881C36.1722 17.4983 37.02 17.8495 37.6451 18.4746C38.2702 19.0997 38.6214 19.9476 38.6214 20.8316C38.6214 21.7157 38.2702 22.5635 37.6451 23.1886C37.02 23.8138 36.1722 24.165 35.2881 24.165H35.1381C34.6018 24.1671 34.0778 24.326 33.6307 24.6221C33.1835 24.9183 32.8327 25.3387 32.6214 25.8316V25.8316Z" stroke="#ADFF2C" stroke-width="2" stroke-linecap="round" stroke-linejoin="round"/>
</g>
<defs>
<clipPath id="clip0_2023_4748">
<rect width="40" height="40" fill="white" transform="translate(0.288086 0.831543)"/>
</clipPath>
</defs>
</svg>
