<svg width="41" height="41" viewBox="0 0 41 41" fill="none" xmlns="http://www.w3.org/2000/svg">
<g clip-path="url(#clip0_2023_4775)">
<path d="M38.6214 35.8314V32.4981C38.6203 31.021 38.1287 29.586 37.2237 28.4186C36.3187 27.2512 35.0516 26.4174 33.6214 26.0481" stroke="#ADFF2C" stroke-width="2" stroke-linecap="round" stroke-linejoin="round"/>
<path d="M28.6214 35.8315V32.4982C28.6214 30.7301 27.9191 29.0344 26.6688 27.7842C25.4186 26.5339 23.7229 25.8315 21.9548 25.8315H8.62144C6.85333 25.8315 5.15764 26.5339 3.90739 27.7842C2.65715 29.0344 1.95477 30.7301 1.95477 32.4982V35.8315" stroke="#ADFF2C" stroke-width="2" stroke-linecap="round" stroke-linejoin="round"/>
<path d="M26.9548 6.0481C28.3888 6.41526 29.6598 7.24926 30.5675 8.41861C31.4752 9.58796 31.9678 11.0261 31.9678 12.5064C31.9678 13.9867 31.4752 15.4249 30.5675 16.5942C29.6598 17.7636 28.3888 18.5976 26.9548 18.9648" stroke="#ADFF2C" stroke-width="2" stroke-linecap="round" stroke-linejoin="round"/>
<path d="M15.2881 19.1649C18.97 19.1649 21.9547 16.1801 21.9547 12.4982C21.9547 8.81631 18.97 5.83154 15.2881 5.83154C11.6062 5.83154 8.6214 8.81631 8.6214 12.4982C8.6214 16.1801 11.6062 19.1649 15.2881 19.1649Z" stroke="#ADFF2C" stroke-width="2" stroke-linecap="round" stroke-linejoin="round"/>
</g>
<defs>
<clipPath id="clip0_2023_4775">
<rect width="40" height="40" fill="white" transform="translate(0.288086 0.831543)"/>
</clipPath>
</defs>
</svg>
