<svg width="41" height="41" viewBox="0 0 41 41" fill="none" xmlns="http://www.w3.org/2000/svg">
<rect x="0.288086" y="0.831543" width="40" height="40" rx="20" fill="#060508"/>
<g clip-path="url(#clip0_2028_6420)">
<path d="M20.4381 32.0815H10.0381C9.77287 32.0815 9.51852 31.9762 9.33098 31.7887C9.14344 31.6011 9.03809 31.3468 9.03809 31.0815V10.5815C9.03809 10.3163 9.14344 10.062 9.33098 9.87444C9.51852 9.6869 9.77287 9.58154 10.0381 9.58154H30.5381C30.8033 9.58154 31.0577 9.6869 31.2452 9.87444C31.4327 10.062 31.5381 10.3163 31.5381 10.5815V31.0815C31.5381 31.3468 31.4327 31.6011 31.2452 31.7887C31.0577 31.9762 30.8033 32.0815 30.5381 32.0815H24.4381V23.5815H26.9981C27.1209 23.5824 27.2398 23.5381 27.332 23.4569C27.4242 23.3758 27.4833 23.2635 27.4981 23.1415L27.8781 20.1415C27.8866 20.071 27.88 19.9995 27.8587 19.9317C27.8375 19.864 27.802 19.8015 27.7547 19.7485C27.7074 19.6955 27.6493 19.6532 27.5844 19.6244C27.5194 19.5957 27.4491 19.581 27.3781 19.5815H24.4381V18.5215C24.4381 18.2996 24.4818 18.0798 24.5667 17.8748C24.6517 17.6698 24.7761 17.4835 24.9331 17.3265C25.09 17.1696 25.2763 17.0451 25.4814 16.9602C25.6864 16.8753 25.9062 16.8315 26.1281 16.8315H27.9381C28.0707 16.8315 28.1979 16.7789 28.2916 16.6851C28.3854 16.5913 28.4381 16.4642 28.4381 16.3315V13.3315C28.4381 13.1989 28.3854 13.0718 28.2916 12.978C28.1979 12.8842 28.0707 12.8315 27.9381 12.8315H26.1281C24.619 12.8315 23.1717 13.431 22.1046 14.4981C21.0376 15.5652 20.4381 17.0125 20.4381 18.5215V19.5815H17.9381C17.8055 19.5815 17.6783 19.6342 17.5845 19.728C17.4908 19.8218 17.4381 19.9489 17.4381 20.0815V23.0815C17.4381 23.2142 17.4908 23.3413 17.5845 23.4351C17.6783 23.5289 17.8055 23.5815 17.9381 23.5815H20.4381V32.0815Z" fill="#ADFF2C"/>
</g>
<defs>
<clipPath id="clip0_2028_6420">
<rect width="24" height="24" fill="white" transform="translate(8.28809 8.83154)"/>
</clipPath>
</defs>
</svg>
