<svg width="41" height="41" viewBox="0 0 41 41" fill="none" xmlns="http://www.w3.org/2000/svg">
<rect x="0.621429" y="0.831543" width="40" height="40" rx="20" fill="#060508"/>
<path d="M25.6022 10.8701H15.6407C12.8899 10.8701 10.6599 13.1001 10.6599 15.8509V25.8124C10.6599 28.5631 12.8899 30.7931 15.6407 30.7931H25.6022C28.3529 30.7931 30.5829 28.5631 30.5829 25.8124V15.8509C30.5829 13.1001 28.3529 10.8701 25.6022 10.8701Z" fill="#ADFF2C" stroke="#ADFF2C" stroke-width="1.5" stroke-linecap="round" stroke-linejoin="round"/>
<path d="M20.6213 25.19C23.0283 25.19 24.9795 23.2387 24.9795 20.8318C24.9795 18.4248 23.0283 16.4736 20.6213 16.4736C18.2144 16.4736 16.2632 18.4248 16.2632 20.8318C16.2632 23.2387 18.2144 25.19 20.6213 25.19Z" fill="#ADFF2C" stroke="#060508" stroke-width="1.5" stroke-linecap="round" stroke-linejoin="round"/>
<path d="M26.3928 15.3838C26.2208 15.3838 26.0815 15.2445 26.0815 15.0725C26.0815 14.9006 26.2208 14.7612 26.3928 14.7612" stroke="#060508" stroke-width="1.86778"/>
<path d="M26.3009 15.5677C26.5743 15.5677 26.7959 15.3461 26.7959 15.0727C26.7959 14.7993 26.5743 14.5776 26.3009 14.5776" stroke="#060508" stroke-width="1.5"/>
</svg>
