<svg width="41" height="41" viewBox="0 0 41 41" fill="none" xmlns="http://www.w3.org/2000/svg">
<rect x="0.954742" y="0.831543" width="40" height="40" rx="20" fill="#060508"/>
<g clip-path="url(#clip0_2028_6408)">
<path d="M14.6248 31.4614H9.76475V17.5314H14.6248V31.4614ZM24.7148 22.0714C24.1472 22.0714 23.6029 22.2969 23.2015 22.6982C22.8002 23.0995 22.5748 23.6439 22.5748 24.2114V31.4614H17.4648V17.5314H22.5748V19.1214C23.7725 18.1075 25.2856 17.5418 26.8548 17.5214C30.0248 17.5214 32.2248 19.8714 32.2248 24.3314V31.4614H26.8548V24.2114C26.8561 23.9296 26.8017 23.6502 26.6947 23.3894C26.5878 23.1286 26.4304 22.8915 26.2315 22.6917C26.0327 22.492 25.7963 22.3334 25.536 22.2253C25.2757 22.1171 24.9966 22.0614 24.7148 22.0614V22.0714ZM14.7148 12.7114C14.7148 13.2059 14.5681 13.6892 14.2934 14.1004C14.0187 14.5115 13.6283 14.8319 13.1715 15.0211C12.7146 15.2103 12.212 15.2599 11.727 15.1634C11.2421 15.0669 10.7966 14.8288 10.447 14.4792C10.0974 14.1296 9.85925 13.6841 9.76279 13.1992C9.66633 12.7142 9.71584 12.2115 9.90505 11.7547C10.0943 11.2979 10.4147 10.9075 10.8258 10.6328C11.237 10.358 11.7203 10.2114 12.2148 10.2114C12.8743 10.2167 13.5051 10.4824 13.9696 10.9507C14.4341 11.419 14.6948 12.0518 14.6948 12.7114H14.7148Z" fill="#ADFF2C"/>
</g>
<defs>
<clipPath id="clip0_2028_6408">
<rect width="24" height="24" fill="white" transform="translate(8.95474 8.83154)"/>
</clipPath>
</defs>
</svg>
