<svg width="41" height="41" viewBox="0 0 41 41" fill="none" xmlns="http://www.w3.org/2000/svg">
<rect x="0.288086" y="0.831543" width="40" height="40" rx="20" fill="#060508"/>
<path d="M31.4681 15.5416L29.3681 14.6416L30.4681 12.2416L27.9081 13.0916C27.0927 12.3315 26.0227 11.9035 24.9081 11.8916C23.7154 11.8942 22.5724 12.3692 21.729 13.2125C20.8857 14.0559 20.4107 15.1989 20.4081 16.3916V17.3916C16.8681 18.1216 13.7781 16.1916 10.9081 12.8916C10.4081 15.5583 10.9081 17.5583 12.4081 18.8916L9.11809 18.3916C9.24519 19.4508 9.74043 20.4316 10.5173 21.1628C11.2941 21.8939 12.3031 22.3289 13.3681 22.3916L10.6181 23.3916C11.6181 25.3916 13.4381 25.7016 15.8681 25.8916C13.8819 27.2463 11.5217 27.9456 9.11809 27.8916C21.8781 33.5616 29.3681 25.2316 29.3681 17.8916V17.0616L31.4681 15.5416Z" fill="#ADFF2C"/>
</svg>
