<svg xmlns="http://www.w3.org/2000/svg" width="27" height="28" viewBox="0 0 1920 1962" version="1.1"><path d="M 0 0.572 C 0 1.041, 16.004 24.528, 39.472 58.500 C 44.519 65.806, 100.658 147.476, 205.819 300.500 C 249.286 363.750, 294.595 429.675, 306.505 447 C 318.415 464.325, 353.513 515.400, 384.499 560.500 C 415.486 605.600, 451.206 657.575, 463.878 676 C 476.549 694.425, 524.026 763.500, 569.380 829.500 C 614.735 895.500, 661.588 963.675, 673.499 981 C 694.738 1011.893, 723.034 1053.095, 740.201 1078.128 L 748.862 1090.756 744.127 1096.128 C 741.522 1099.083, 726.830 1116.125, 711.477 1134 C 672.062 1179.891, 643.018 1213.673, 625.505 1234 C 617.213 1243.625, 600.561 1262.975, 588.500 1277 C 576.439 1291.025, 559.780 1310.375, 551.479 1320 C 543.177 1329.625, 524.976 1350.775, 511.030 1367 C 480.812 1402.158, 447.621 1440.747, 416.419 1477 C 403.875 1491.575, 381.223 1517.900, 366.081 1535.500 C 350.938 1553.100, 329.827 1577.625, 319.165 1590 C 308.504 1602.375, 287.982 1626.225, 273.559 1643 C 228.435 1695.486, 197.035 1731.975, 184.492 1746.500 C 177.843 1754.200, 159.825 1775.131, 144.451 1793.013 C 129.078 1810.896, 107.050 1836.507, 95.500 1849.926 C 83.950 1863.346, 63.025 1887.659, 49 1903.955 C 34.975 1920.251, 18.212 1939.712, 11.750 1947.202 C 5.287 1954.692, -0 1961.088, -0 1961.416 C -0 1961.743, 38.344 1961.896, 85.209 1961.756 L 170.418 1961.500 198.815 1928.500 C 214.434 1910.350, 236.316 1884.925, 247.441 1872 C 258.567 1859.075, 279.085 1835.225, 293.037 1819 C 306.989 1802.775, 326.541 1780.050, 336.485 1768.500 C 346.430 1756.950, 367.143 1732.875, 382.516 1715 C 397.889 1697.125, 419.185 1672.375, 429.841 1660 C 440.498 1647.625, 461.408 1623.325, 476.310 1606 C 518.323 1557.153, 566.517 1501.131, 591.584 1472 C 604.127 1457.425, 626.767 1431.100, 641.897 1413.500 C 657.026 1395.900, 673.496 1376.775, 678.496 1371 C 689.204 1358.632, 712.834 1331.166, 755.496 1281.500 C 794.101 1236.557, 809.565 1218.616, 818.109 1208.856 L 824.801 1201.213 840.743 1224.356 C 854.509 1244.341, 912.357 1328.492, 931.953 1357.038 C 970.654 1413.417, 1000.259 1456.507, 1018.500 1483.007 C 1030.600 1500.586, 1055.800 1537.253, 1074.500 1564.489 C 1093.200 1591.725, 1118.400 1628.401, 1130.500 1645.991 C 1142.600 1663.580, 1196.375 1741.863, 1250 1819.954 L 1347.500 1961.936 1633.917 1961.718 C 1877.327 1961.533, 1920.403 1961.291, 1920.796 1960.111 C 1921.051 1959.347, 1920.833 1958.985, 1920.312 1959.307 C 1919.790 1959.630, 1907.019 1941.911, 1891.932 1919.933 C 1867.652 1884.565, 1666.673 1592.144, 1609.499 1509 C 1597.586 1491.675, 1572.387 1455, 1553.501 1427.500 C 1534.616 1400, 1512.659 1368.050, 1504.709 1356.500 C 1491.873 1337.852, 1429.631 1247.262, 1406.801 1214 C 1402.082 1207.125, 1390.329 1190.025, 1380.683 1176 C 1371.037 1161.975, 1353.403 1136.325, 1341.497 1119 C 1329.590 1101.675, 1282.726 1033.500, 1237.354 967.500 C 1138.428 823.599, 1145.039 833.266, 1144.383 831.556 C 1144.063 830.723, 1151.371 821.440, 1162.675 808.321 C 1173.029 796.305, 1193.488 772.530, 1208.140 755.487 C 1222.792 738.444, 1245.251 712.350, 1258.049 697.500 C 1270.847 682.650, 1293.111 656.775, 1307.524 640 C 1342.237 599.599, 1356.772 582.698, 1378.478 557.500 C 1419.201 510.223, 1442.984 482.585, 1504.546 411 C 1518.973 394.225, 1539.495 370.375, 1550.151 358 C 1560.807 345.625, 1580.747 322.450, 1594.463 306.500 C 1608.179 290.550, 1624.840 271.200, 1631.489 263.500 C 1638.138 255.800, 1659.825 230.600, 1679.682 207.500 C 1730.259 148.665, 1764.974 108.337, 1782.500 88.058 C 1790.750 78.512, 1800.425 67.232, 1804 62.992 C 1807.575 58.751, 1818.600 45.926, 1828.500 34.490 C 1838.400 23.055, 1849.109 10.617, 1852.298 6.849 L 1858.097 0 1772.660 0 L 1687.223 0 1678.826 9.750 C 1674.208 15.113, 1657.865 34.125, 1642.510 52 C 1627.154 69.875, 1609.153 90.800, 1602.506 98.500 C 1595.860 106.200, 1580.555 123.975, 1568.497 138 C 1556.438 152.025, 1539.782 171.375, 1531.484 181 C 1523.186 190.625, 1504.218 212.675, 1489.333 230 C 1447.099 279.156, 1437.131 290.747, 1414.520 317 C 1380.041 357.031, 1353.515 387.867, 1291.071 460.500 C 1279.250 474.250, 1264.143 491.800, 1257.500 499.500 C 1242.554 516.824, 1209.484 555.269, 1180.514 589 C 1155.610 617.996, 1146.729 628.281, 1145.976 629 C 1145.687 629.275, 1129.419 648.175, 1109.824 671 C 1090.228 693.825, 1072.675 714.246, 1070.817 716.379 L 1067.437 720.259 1029.014 664.379 C 1007.882 633.646, 987.357 603.775, 983.405 598 C 979.452 592.225, 953.480 554.425, 925.689 514 C 867.967 430.036, 853.469 408.944, 775.158 295 C 743.973 249.625, 707.022 195.850, 693.044 175.500 C 679.067 155.150, 665.762 135.800, 663.477 132.500 C 657.012 123.163, 590.314 25.962, 580.963 12.250 L 572.609 -0 286.304 -0 C 128.837 -0, 0 0.257, 0 0.572 M 232.604 129.250 C 233.360 130.558, 246.118 148.889, 278.365 195 C 288.943 210.125, 315.841 248.600, 338.139 280.500 C 386.305 349.410, 480.950 484.770, 549.998 583.500 C 638.831 710.520, 713.674 817.546, 746.502 864.500 C 764.190 889.800, 802.734 944.925, 832.154 987 C 861.575 1029.075, 900.430 1084.650, 918.498 1110.500 C 948.933 1154.042, 984.115 1204.356, 1104.503 1376.500 C 1129.889 1412.800, 1171.734 1472.650, 1197.492 1509.500 C 1259.512 1598.228, 1344.602 1719.906, 1390.499 1785.500 L 1427.584 1838.500 1556.792 1838.754 C 1627.856 1838.893, 1686 1838.793, 1686 1838.530 C 1686 1838.268, 1671.903 1817.903, 1654.674 1793.276 C 1637.445 1768.649, 1602.424 1718.575, 1576.849 1682 C 1551.275 1645.425, 1507.851 1583.325, 1480.352 1544 C 1452.852 1504.675, 1414.151 1449.325, 1394.348 1421 C 1326.151 1323.454, 1264.485 1235.265, 1200.657 1144 C 1165.461 1093.675, 1123.627 1033.825, 1107.693 1011 C 1091.760 988.175, 1075.696 965.225, 1071.997 960 C 1068.298 954.775, 1060.571 943.750, 1054.826 935.500 C 1049.080 927.250, 1042.800 918.250, 1040.869 915.500 C 1038.939 912.750, 1025.722 893.850, 1011.500 873.500 C 997.277 853.150, 961.569 802.075, 932.149 760 C 855.055 649.744, 806.589 580.428, 748.605 497.500 C 720.532 457.350, 670.324 385.552, 637.032 337.948 C 603.739 290.345, 557.150 223.656, 533.500 189.751 L 490.500 128.105 361.191 128.053 C 258.013 128.011, 232.028 128.253, 232.604 129.250" stroke="none" fill="#adff2c" fill-rule="evenodd"/><path d="" stroke="none" fill="#adff2c" fill-rule="evenodd"/></svg>
