<?xml version="1.0" encoding="utf-8"?>
<!-- Generator: Adobe Illustrator 28.0.0, SVG Export Plug-In . SVG Version: 6.00 Build 0)  -->
<svg version="1.1" id="Layer_1" xmlns="http://www.w3.org/2000/svg" xmlns:xlink="http://www.w3.org/1999/xlink" x="0px" y="0px"
	 viewBox="0 0 32 32" style="enable-background:new 0 0 32 32;" xml:space="preserve">
<style type="text/css">
	.st0{fill:#ADFF2C;}
</style>
<path d="M29.2,32H2.9C1.3,32,0,30.7,0,29.2V2.8C0,1.3,1.3,0,2.9,0h26.3C30.8,0,32,1.3,32,2.8v26.3C32,30.7,30.8,32,29.2,32z"/>
<g>
	<path class="st0" d="M13.6,25.5l-0.5,2.5l2,0.4l0.6-3.3c-0.6,0.1-1.4,0.3-2,0.3C13.6,25.5,13.6,25.5,13.6,25.5z"/>
	<path class="st0" d="M8.4,25.1l2.9,2l1.2-1.8c-1.2-0.3-2.3-0.6-3.1-1.5L8.4,25.1z"/>
	<path class="st0" d="M29.4,16.4L22,15.6l7.3-2.3l-0.6-2l-7.1,2.3l5.6-5.1l-1.4-1.6L20.2,12l3.1-7l-2-0.8L18.2,11V3.5H16v7.8
		c3,1,5.1,3.8,5.1,7c0,0.4-0.1,1.1-0.1,1.5l6,3.5l1.1-1.8l-6.5-3.8l7.5,0.8L29.4,16.4z"/>
	<path class="st0" d="M17.4,24.6l0.8,3.9l2-0.4l-1.1-5C18.7,23.6,18.1,24.2,17.4,24.6z"/>
	<path class="st0" d="M19.9,22.3l3.3,4.5l1.8-1.2l-4-5.5C20.6,21,20.4,21.6,19.9,22.3z"/>
	<path class="st0" d="M19.1,19.8l-8.5-1.9c-0.4-0.1-0.8-0.1-1.2-0.1c-1.2,0.1-2.4,0.8-3,1.9l-3.8,0.4l4.7,4.1l1.1-1.1
		c-1-0.5-1.1-1.8-0.5-2.5C8.3,20,9.3,19.8,10,20l7.4,1.6C18.7,21.1,19.1,19.8,19.1,19.8z"/>
</g>
</svg>
