<svg width="32" height="32" viewBox="0 0 32 32" fill="none" xmlns="http://www.w3.org/2000/svg">
<path d="M9.6991 30.4121L10.7805 30.8854L11.906 28.1144C11.4867 28.1144 11.0747 28.0915 10.6628 28.0381L9.6991 30.4121Z" fill="#ADFF2C"/>
<path d="M6.32257 28.1832L7.24947 28.9313L8.3897 27.4046C8.02188 27.2443 7.66142 27.0611 7.31567 26.855L6.32257 28.1832Z" fill="#ADFF2C"/>
<path d="M18.6297 1.88547L18.8357 0.328217L17.6734 0.160278L16.2977 10.603C16.6508 10.8091 16.9819 11.0381 17.3055 11.2901L18.6297 1.88547Z" fill="#ADFF2C"/>
<path d="M21.8738 6.16797L18.512 12.4275H18.5046C18.7033 12.6489 18.8872 12.8855 19.0637 13.1298L23.0508 7.79392C23.0508 7.79392 23.0508 7.79392 23.0508 7.78629L26.0302 3.80156L25.1033 3.05347L22.3446 6.74812C22.1902 6.54965 22.0357 6.35881 21.8738 6.16797Z" fill="#ADFF2C"/>
<path d="M18.3281 12.2366L22.6389 1.56489L21.5722 1.09924L20.1892 4.51146C20.0053 4.36642 19.8214 4.22138 19.6302 4.08398L17.6807 11.6107C17.9088 11.8092 18.1221 12.0153 18.3281 12.2366Z" fill="#ADFF2C"/>
<path d="M24.9929 13.6946L20.1524 15.0916C20.2775 15.4045 20.3878 15.7252 20.4834 16.0534L25.0296 15.4503V15.4427L31.4444 14.603L31.2972 13.3893L25.0223 14.2137C25.0149 14.0458 25.0076 13.8702 24.9929 13.6946Z" fill="#ADFF2C"/>
<path d="M24.5221 11.1603L19.7993 14.0764L19.689 14.1222C19.8434 14.4046 19.9832 14.6947 20.1083 14.9924L24.9046 12.9542V12.9466L30.5837 10.542L30.1423 9.41223L24.6766 11.7252C24.6251 11.542 24.5736 11.3512 24.5221 11.1603Z" fill="#ADFF2C"/>
<path d="M23.5069 8.59541L19.2623 13.1679L19.1593 13.2672C19.3359 13.5191 19.4977 13.7786 19.6448 14.0458L24.2793 10.3893V10.3817L28.7372 6.87022L28.0237 5.90076L23.8085 9.22137C23.7129 9.00763 23.6099 8.79389 23.5069 8.59541Z" fill="#ADFF2C"/>
<path d="M22.5212 22.7786L20.6306 20.8855C20.5129 21.4122 20.3437 21.9313 20.1451 22.4199L24.9708 29.0229L25.9051 28.2824L22.1975 23.2137C22.3078 23.0763 22.4182 22.9313 22.5212 22.7786Z" fill="#ADFF2C"/>
<path d="M23.7644 20.6641L20.866 19C20.8513 19.4809 20.8071 19.9618 20.7262 20.4275L22.9257 22.1908L27.8545 26.1603L27.9207 26.2137L28.6416 25.2519L23.529 21.1374C23.6099 20.9847 23.6908 20.8244 23.7644 20.6641Z" fill="#ADFF2C"/>
<path d="M20.8145 24.7252L19.8582 23.0535C19.5933 23.5878 19.277 24.0916 18.9166 24.5649L19.4242 25.855L21.4251 30.939L22.5138 30.4809L20.4025 25.1069C20.5423 24.9771 20.6821 24.855 20.8145 24.7252Z" fill="#ADFF2C"/>
<path d="M24.5662 18.4733L20.7777 17.458C20.8366 17.8702 20.866 18.2901 20.866 18.7023L24.0218 20.0763L30.0687 22.7175L30.5248 21.5954L24.4338 18.9389C24.4779 18.7786 24.5221 18.6259 24.5662 18.4733Z" fill="#ADFF2C"/>
<path d="M24.9929 16.0992L20.5203 16.1679C20.5644 16.3283 20.6012 16.4886 20.638 16.6489C20.6821 16.855 20.7189 17.0611 20.7557 17.2595L24.7281 17.8244C24.7281 17.8244 24.7281 17.8244 24.7281 17.8168L30.4807 18.6336L31.2752 18.7481L31.437 17.542L24.9341 16.626C24.9561 16.4504 24.9782 16.2748 24.9929 16.0992Z" fill="#ADFF2C"/>
<path d="M18.4531 25.1221C17.9823 25.6412 17.46 26.1144 16.8788 26.519L17.5115 31.8396L18.6811 31.687L18.0706 26.6793C18.3207 26.5496 18.5634 26.4121 18.7988 26.2595L18.4531 25.1221Z" fill="#ADFF2C"/>
<path d="M14.032 27.832L13.517 31.6641L14.6793 31.832L15.2163 27.7633C15.5253 27.687 15.8343 27.603 16.1359 27.5038L16.1138 27.0076C15.4665 27.3587 14.7676 27.6412 14.032 27.832Z" fill="#ADFF2C"/>
<path d="M8.74278 20.6335C8.3014 20.5114 7.86738 20.4656 7.44807 20.4885C6.07979 20.5648 4.79979 21.519 4.27013 22.7557H0.621399L4.99105 26.7862L5.73404 26.0305L3.13726 23.7022H4.9322L4.95427 23.5877C5.17496 22.4656 6.30784 21.5037 7.4922 21.435C7.81588 21.4198 8.16163 21.4579 8.50738 21.5495L15.6798 23.2289C16.0623 23.3205 16.4448 23.0763 16.5405 22.687L16.592 22.4808L8.74278 20.6335Z" fill="#ADFF2C"/>
</svg>
