<svg width="197" height="49" viewBox="0 0 197 49" fill="none" xmlns="http://www.w3.org/2000/svg">
<path d="M27.9724 36.9286C27.6935 37.7171 27.3815 38.4723 27.0223 39.1706C26.6204 39.9591 26.1666 40.6906 25.6466 41.3318C24.9895 42.1488 24.2284 42.8328 23.3634 43.3363C23.0939 43.5026 22.8055 43.6451 22.5077 43.7733C21.4961 44.2008 20.4419 44.5333 19.3641 44.7851C17.8892 45.1271 16.3717 45.3076 14.859 45.3646C14.0128 45.4026 12.3441 45.0463 10.7226 46.2528C9.5739 47.1078 9.72518 48.3951 8.68518 48.5423C8.08954 48.6231 7.58845 48.2668 6.69972 47.0176C8.81754 45.2648 8.68518 45.5498 11.0157 43.2651C11.4837 42.8043 11.9517 42.3341 12.4244 41.8543C12.8877 41.3841 13.3463 40.9043 13.8048 40.4198C14.2586 39.9401 14.7124 39.4556 15.1568 38.9616C15.6012 38.4723 16.0455 37.9736 16.4805 37.4748C16.9201 36.9761 17.3503 36.4631 17.771 35.9501C22.4841 30.2833 26.3888 24.0941 27.5943 18.4701C26.2612 23.0633 21.6237 29.5613 16.2583 35.0238C15.795 35.4988 15.3223 35.9643 14.8448 36.4203C14.3674 36.8811 13.8852 37.3276 13.403 37.7693C12.9066 38.2206 12.4055 38.6528 11.9092 39.0756C11.3939 39.5078 10.8786 39.9306 10.3681 40.3343C9.82918 40.7571 9.29972 41.1561 8.76554 41.5361C8.76081 41.5408 8.76081 41.5408 8.75609 41.5456C8.75136 41.5361 8.74663 41.5266 8.7419 41.5171H8.73718C7.88154 39.8166 7.31899 38.2633 7.01172 36.8193C6.69499 35.3753 6.63354 34.0548 6.78481 32.8388C6.91245 31.7843 7.19136 30.8106 7.60736 29.9033C7.9619 29.1101 8.42045 28.3691 8.95936 27.6756C9.44154 27.0486 9.98518 26.4501 10.5855 25.8896C16.1448 20.6266 26.0863 17.9428 29.1448 13.3306L29.263 13.4066C29.263 13.4066 31.1681 27.7658 27.9724 36.9286Z" fill="#FFFEFC"/>
<path d="M23.6423 0.106445C10.7415 0.106445 0.251724 10.6087 0.251724 23.5192C0.251724 28.9817 2.13318 34.0119 5.27681 37.9972C5.21063 37.7454 5.14918 37.4889 5.09718 37.2419C4.823 36.0164 4.71427 34.8147 4.75682 33.6652C3.13063 30.6394 2.20409 27.1862 2.20409 23.5192C2.20409 11.6822 11.8194 2.05395 23.6423 2.05395C35.4652 2.05395 45.0804 11.6774 45.0804 23.5192C45.0804 35.0854 35.8954 44.5427 24.4412 44.9702C24.4128 44.9844 24.3892 45.0034 24.3561 45.0177C24.0205 45.2219 23.6659 45.4024 23.2594 45.5734C22.2383 46.0057 21.1368 46.3667 19.9786 46.6422C21.1746 46.8369 22.3895 46.9367 23.6375 46.9367C36.5288 46.9367 47.0281 36.4297 47.0281 23.5239C47.0281 10.6087 36.5335 0.106445 23.6423 0.106445Z" fill="#FFFEFC"/>
<path d="M23.6423 4.01074C12.8924 4.01074 4.15172 12.7602 4.15172 23.5237C4.15172 25.894 4.5819 28.174 5.3619 30.2782C5.49426 29.8792 5.64554 29.4897 5.82045 29.1097C6.04263 28.6205 6.30263 28.136 6.59572 27.661C6.27426 26.3357 6.10408 24.9487 6.10408 23.5237C6.10408 13.8385 13.975 5.96299 23.647 5.96299C33.319 5.96299 41.1899 13.8432 41.1899 23.5237C41.1899 31.48 35.8717 38.2202 28.6106 40.3625C28.1757 41.1747 27.6888 41.9205 27.1735 42.557C27.1263 42.614 27.0743 42.6805 27.0175 42.7375C36.1648 41.1367 43.1423 33.1282 43.1423 23.5237C43.1328 12.7602 34.3874 4.01074 23.6423 4.01074Z" fill="#FFFEFC"/>
<path d="M39.2328 23.5193C39.2328 29.9745 35.295 35.532 29.6885 37.9118C29.731 37.8025 29.7735 37.6933 29.8114 37.5793C30.0666 36.8573 30.2841 36.102 30.4779 35.3325C34.5481 32.9718 37.2852 28.5638 37.2852 23.524C37.2852 18.0378 34.0423 13.2973 29.367 11.136C29.0881 10.9983 28.7997 10.8795 28.5114 10.7703C26.9986 10.186 25.3583 9.86778 23.6423 9.86778C16.1165 9.86778 9.99936 15.9953 9.99936 23.524C9.99936 23.6095 9.99936 23.7045 10.0041 23.79C9.73936 24.0085 9.48409 24.2365 9.23354 24.474C8.86482 24.8208 8.51027 25.1818 8.17936 25.5523C8.08954 24.8873 8.047 24.2128 8.047 23.524C8.047 14.9123 15.0386 7.91553 23.6375 7.91553C32.2365 7.91078 39.2328 14.9123 39.2328 23.5193Z" fill="#FFFEFC"/>
<path d="M57.3477 21.3579V8.13867H64.6277C65.4928 8.13867 66.2634 8.29542 66.9299 8.60892C67.5964 8.92242 68.1164 9.34992 68.4946 9.89142C68.8728 10.4329 69.0619 11.0504 69.0619 11.7439C69.0619 12.3092 68.9626 12.8127 68.7594 13.2544C68.5561 13.6962 68.2961 14.0619 67.9746 14.3517C67.6532 14.6414 67.3128 14.8504 66.9488 14.9739C67.639 14.9739 68.1212 15.1307 68.3906 15.4442C68.6601 15.7577 68.7972 16.2517 68.7972 16.9167V21.3532H66.4761V17.4439C66.4761 16.9784 66.391 16.6602 66.2208 16.4892C66.0506 16.3182 65.7292 16.2327 65.2517 16.2327H59.6688V21.3484H57.3477V21.3579ZM59.6688 14.1617H64.3441C65.0626 14.1617 65.6157 13.9812 66.0128 13.6249C66.4099 13.2687 66.6084 12.7794 66.6084 12.1619C66.6084 11.5587 66.4099 11.0789 66.0128 10.7274C65.6157 10.3759 65.0626 10.2002 64.3441 10.2002H59.6688V14.1617Z" fill="#FFFEFC"/>
<path d="M70.4565 21.3581L76.6255 8.14355H79.3626L85.5128 21.3581H82.9837L77.3441 9.06505H78.5685L72.9288 21.3581H70.4565ZM73.6048 18.1471L74.399 16.0713H81.4899L82.303 18.1471H73.6048Z" fill="#FFFEFC"/>
<path d="M88.0514 21.3579V8.13867H90.3725V21.3532H88.0514V21.3579Z" fill="#FFFEFC"/>
<path d="M94.2393 21.3579V8.13867H97.2932L105.419 19.8237L104.441 19.9757V8.13867H106.762V21.3532H103.784L95.6575 9.66817L96.5652 9.51617V21.3532H94.2393V21.3579Z" fill="#FFFEFC"/>
<path d="M110.61 21.3579V8.13867H121.757V10.1954H112.931V13.8957H120.703V15.9714H112.931V21.3532H110.61V21.3579Z" fill="#FFFEFC"/>
<path d="M130.734 21.5432C129.325 21.5432 128.063 21.2677 126.943 20.7215C125.822 20.1752 124.938 19.3915 124.291 18.3797C123.643 17.368 123.322 16.1567 123.322 14.746C123.322 13.3352 123.643 12.124 124.291 11.1122C124.938 10.1005 125.822 9.31673 126.943 8.77048C128.063 8.22423 129.325 7.94873 130.734 7.94873C132.143 7.94873 133.405 8.22423 134.516 8.77048C135.627 9.31673 136.506 10.1005 137.149 11.1122C137.792 12.124 138.113 13.3352 138.113 14.746C138.113 16.1567 137.792 17.368 137.149 18.3797C136.506 19.3915 135.631 20.1752 134.516 20.7215C133.4 21.2677 132.138 21.5432 130.734 21.5432ZM130.564 19.4865H130.866C131.76 19.4865 132.578 19.3012 133.32 18.9307C134.062 18.5602 134.658 18.0187 135.102 17.3062C135.546 16.5937 135.773 15.7435 135.773 14.746C135.773 13.739 135.551 12.884 135.102 12.1762C134.658 11.4732 134.062 10.9317 133.32 10.5612C132.578 10.1907 131.76 10.0055 130.866 10.0055H130.564C129.684 10.0055 128.871 10.1907 128.12 10.5612C127.373 10.9317 126.772 11.4685 126.328 12.1762C125.884 12.8792 125.657 13.739 125.657 14.746C125.657 15.7387 125.879 16.5937 126.328 17.3062C126.772 18.0187 127.373 18.5602 128.12 18.9307C128.867 19.3012 129.68 19.4865 130.564 19.4865Z" fill="#FFFEFC"/>
<path d="M140.765 21.3579V8.13867H148.045C148.91 8.13867 149.681 8.29542 150.347 8.60892C151.014 8.92242 151.534 9.34992 151.912 9.89142C152.29 10.4329 152.479 11.0504 152.479 11.7439C152.479 12.3092 152.38 12.8127 152.177 13.2544C151.974 13.6962 151.714 14.0619 151.392 14.3517C151.071 14.6414 150.73 14.8504 150.366 14.9739C151.056 14.9739 151.539 15.1307 151.808 15.4442C152.078 15.7577 152.215 16.2517 152.215 16.9167V21.3532H149.894V17.4439C149.894 16.9784 149.808 16.6602 149.638 16.4892C149.468 16.3182 149.147 16.2327 148.669 16.2327H143.086V21.3484H140.765V21.3579ZM143.086 14.1617H147.762C148.48 14.1617 149.033 13.9812 149.43 13.6249C149.827 13.2639 150.026 12.7794 150.026 12.1619C150.026 11.5587 149.827 11.0789 149.43 10.7274C149.033 10.3759 148.48 10.2002 147.762 10.2002H143.086V14.1617Z" fill="#FFFEFC"/>
<path d="M155.949 21.3579V8.13867H167.474V10.1954H158.27V19.2964H167.663V21.3532H155.949V21.3579ZM157.963 15.5962V13.5204H166.335V15.5962H157.963Z" fill="#FFFEFC"/>
<path d="M175.917 21.5434C173.97 21.5434 172.433 21.1634 171.308 20.4034C170.183 19.6434 169.606 18.5081 169.583 16.9976H172.036C172.074 17.8289 172.424 18.4511 173.09 18.8691C173.757 19.2871 174.646 19.4914 175.752 19.4914H176.054C177.198 19.4914 178.021 19.3299 178.517 19.0021C179.014 18.6744 179.264 18.2611 179.264 17.7576C179.264 17.3064 179.061 16.9311 178.659 16.6319C178.257 16.3374 177.586 16.1189 176.64 15.9811L174.584 15.6391C173.1 15.3874 172.017 14.9741 171.341 14.3946C170.66 13.8151 170.325 12.9459 170.325 11.7869C170.325 11.1314 170.519 10.5139 170.902 9.93436C171.284 9.35486 171.885 8.87986 172.703 8.50936C173.52 8.13886 174.565 7.95361 175.832 7.95361C177.643 7.95361 179.07 8.33361 180.115 9.09361C181.16 9.85361 181.741 10.8986 181.869 12.2191H179.415C179.316 11.5019 178.966 10.9556 178.371 10.5756C177.775 10.2004 176.976 10.0104 175.983 10.0104H175.681C174.712 10.0104 173.97 10.1719 173.445 10.4901C172.92 10.8084 172.66 11.2026 172.66 11.6681C172.66 12.1574 172.844 12.5326 173.218 12.7891C173.587 13.0456 174.163 13.2404 174.943 13.3639L177.056 13.7059C178.579 13.9576 179.713 14.4136 180.47 15.0739C181.226 15.7341 181.599 16.5891 181.599 17.6341C181.599 18.8929 181.112 19.8571 180.139 20.5316C179.16 21.2109 177.756 21.5434 175.917 21.5434Z" fill="#FFFEFC"/>
<path d="M189.253 21.3581V10.2003H183.859V8.14355H196.949V10.2003H191.574V21.3581H189.253Z" fill="#FFFEFC"/>
<path d="M63.8005 39.5696C62.2925 39.5696 60.9925 39.2751 59.9052 38.6908C58.8179 38.1066 57.9859 37.3038 57.4045 36.2826C56.8277 35.2613 56.5394 34.0928 56.5394 32.7723C56.5394 31.4756 56.8325 30.3166 57.4281 29.3001C58.019 28.2788 58.8557 27.4713 59.9383 26.8728C61.0208 26.2743 62.3019 25.9751 63.7863 25.9751C65.0674 25.9751 66.1688 26.1793 67.0859 26.5878C68.003 26.9963 68.7263 27.5378 69.2557 28.2123C69.7852 28.8868 70.1114 29.6231 70.2343 30.4306H67.7808C67.6674 29.9128 67.4263 29.4758 67.0623 29.1196C66.6983 28.7586 66.2445 28.4878 65.7056 28.3073C65.1666 28.1268 64.5757 28.0318 63.9328 28.0318H63.6303C62.6376 28.0318 61.7866 28.2408 61.0728 28.6636C60.3637 29.0863 59.8201 29.6563 59.4419 30.3736C59.0637 31.0908 58.8746 31.8888 58.8746 32.7723C58.8746 33.6558 59.0637 34.4538 59.4419 35.1711C59.8201 35.8883 60.3637 36.4583 61.0728 36.8811C61.7819 37.3038 62.6328 37.5128 63.6303 37.5128H63.9328C64.8877 37.5128 65.7197 37.3133 66.4335 36.9191C67.1426 36.5248 67.5917 35.9216 67.7808 35.1141H70.2343C70.0972 35.9833 69.7521 36.7528 69.199 37.4273C68.6459 38.1018 67.9132 38.6243 67.0008 39.0043C66.0837 39.3796 65.0201 39.5696 63.8005 39.5696Z" fill="#FFFEFC"/>
<path d="M78.9986 39.5696C77.5899 39.5696 76.3277 39.2941 75.2074 38.7478C74.087 38.2016 73.203 37.4226 72.5554 36.4061C71.9077 35.3943 71.5863 34.1831 71.5863 32.7723C71.5863 31.3616 71.9077 30.1503 72.5554 29.1386C73.203 28.1268 74.087 27.3431 75.2074 26.7968C76.3277 26.2506 77.5899 25.9751 78.9986 25.9751C80.4074 25.9751 81.6696 26.2506 82.7805 26.7968C83.8914 27.3431 84.7706 28.1268 85.4135 29.1386C86.0565 30.1503 86.3732 31.3616 86.3732 32.7723C86.3732 34.1831 86.0517 35.3943 85.4135 36.4061C84.7706 37.4178 83.8961 38.2016 82.7805 38.7478C81.6696 39.2941 80.4074 39.5696 78.9986 39.5696ZM78.8285 37.5128H79.131C80.0245 37.5128 80.8423 37.3276 81.5845 36.9571C82.3266 36.5866 82.9223 36.0451 83.3666 35.3326C83.811 34.6201 84.0379 33.7698 84.0379 32.7723C84.0379 31.7653 83.8157 30.9103 83.3666 30.2026C82.9223 29.4996 82.3266 28.9581 81.5845 28.5876C80.8423 28.2171 80.0245 28.0318 79.131 28.0318H78.8285C77.9492 28.0318 77.1361 28.2171 76.3845 28.5876C75.6376 28.9581 75.0372 29.4996 74.5928 30.2026C74.1485 30.9056 73.9215 31.7653 73.9215 32.7723C73.9215 33.7651 74.1437 34.6201 74.5928 35.3326C75.0372 36.0451 75.6376 36.5866 76.3845 36.9571C77.1361 37.3276 77.9492 37.5128 78.8285 37.5128Z" fill="#FFFEFC"/>
<path d="M87.9001 39.3795V26.165H90.9539L99.0848 37.85L98.1063 38.002V26.165H100.427V39.3795H97.4492L89.323 27.6945L90.2306 27.5425V39.3795H87.9001Z" fill="#FFFEFC"/>
<path d="M103.141 39.3795V26.165H106.195L114.321 37.85L113.342 38.002V26.165H115.663V39.3795H112.685L104.554 27.6945L105.462 27.5425V39.3795H103.141Z" fill="#FFFEFC"/>
<path d="M118.755 39.3795V26.165H130.28V28.2218H121.076V37.3228H130.469V39.3795H118.755ZM120.774 33.6225V31.5468H129.146V33.6225H120.774Z" fill="#FFFEFC"/>
<path d="M139.238 39.5696C137.73 39.5696 136.43 39.2751 135.343 38.6908C134.256 38.1066 133.424 37.3038 132.842 36.2826C132.266 35.2613 131.977 34.0928 131.977 32.7723C131.977 31.4756 132.27 30.3166 132.866 29.3001C133.457 28.2788 134.294 27.4713 135.376 26.8728C136.459 26.2743 137.74 25.9751 139.224 25.9751C140.505 25.9751 141.607 26.1793 142.524 26.5878C143.441 26.9963 144.164 27.5378 144.694 28.2123C145.223 28.8868 145.549 29.6231 145.672 30.4306H143.219C143.105 29.9128 142.864 29.4758 142.5 29.1196C142.136 28.7586 141.682 28.4878 141.143 28.3073C140.604 28.1268 140.014 28.0318 139.371 28.0318H139.068C138.075 28.0318 137.224 28.2408 136.511 28.6636C135.802 29.0863 135.258 29.6563 134.88 30.3736C134.502 31.0908 134.312 31.8888 134.312 32.7723C134.312 33.6558 134.502 34.4538 134.88 35.1711C135.258 35.8883 135.802 36.4583 136.511 36.8811C137.22 37.3038 138.071 37.5128 139.068 37.5128H139.371C140.326 37.5128 141.158 37.3133 141.871 36.9191C142.58 36.5248 143.03 35.9216 143.219 35.1141H145.672C145.535 35.9833 145.19 36.7528 144.637 37.4273C144.084 38.1018 143.351 38.6243 142.439 39.0043C141.522 39.3796 140.458 39.5696 139.238 39.5696Z" fill="#FFFEFC"/>
<path d="M152.215 39.3795V28.2218H146.821V26.165H159.911V28.2218H154.536V39.3795H152.215Z" fill="#FFFEFC"/>
<path d="M162.378 39.3795V26.165H164.699V39.3795H162.378Z" fill="#FFFEFC"/>
<path d="M174.787 39.5696C173.379 39.5696 172.116 39.2941 170.996 38.7478C169.876 38.2016 168.992 37.4226 168.344 36.4061C167.696 35.3943 167.375 34.1831 167.375 32.7723C167.375 31.3616 167.696 30.1503 168.344 29.1386C168.992 28.1268 169.876 27.3431 170.996 26.7968C172.116 26.2506 173.379 25.9751 174.787 25.9751C176.196 25.9751 177.458 26.2506 178.569 26.7968C179.68 27.3431 180.559 28.1268 181.202 29.1386C181.845 30.1503 182.167 31.3616 182.167 32.7723C182.167 34.1831 181.845 35.3943 181.202 36.4061C180.559 37.4178 179.685 38.2016 178.569 38.7478C177.458 39.2941 176.196 39.5696 174.787 39.5696ZM174.617 37.5128H174.92C175.813 37.5128 176.631 37.3276 177.373 36.9571C178.115 36.5866 178.711 36.0451 179.155 35.3326C179.6 34.6201 179.827 33.7698 179.827 32.7723C179.827 31.7653 179.604 30.9103 179.155 30.2026C178.711 29.4996 178.115 28.9581 177.373 28.5876C176.631 28.2171 175.813 28.0318 174.92 28.0318H174.617C173.738 28.0318 172.925 28.2171 172.173 28.5876C171.426 28.9581 170.826 29.4996 170.382 30.2026C169.937 30.9056 169.71 31.7653 169.71 32.7723C169.71 33.7651 169.932 34.6201 170.382 35.3326C170.826 36.0451 171.426 36.5866 172.173 36.9571C172.925 37.3276 173.738 37.5128 174.617 37.5128Z" fill="#FFFEFC"/>
<path d="M184.067 39.3795V26.165H187.121L195.252 37.85L194.273 38.002V26.165H196.594V39.3795H193.616L185.485 27.6945L186.393 27.5425V39.3795H184.067Z" fill="#FFFEFC"/>
</svg>
